<?xml version="1.0" encoding="utf-8"?>
<!-- Generator: Adobe Illustrator 24.3.0, SVG Export Plug-In . SVG Version: 6.00 Build 0)  -->
<svg version="1.1" id="Слой_1" xmlns="http://www.w3.org/2000/svg" xmlns:xlink="http://www.w3.org/1999/xlink" x="0px" y="0px"
	 viewBox="0 0 1425 1000" style="enable-background:new 0 0 1425 1000;" xml:space="preserve">
<style type="text/css">
	.st0{fill:#36313D;}
	.st1{fill:#48464F;}
	.st2{fill:#443E4D;}
	.st3{fill:#4E4759;}
	.st4{fill:#685F75;}
	.st5{fill:#494752;}
	.st6{fill:#54525E;}
	.st7{fill:#403B4A;}
	.st8{fill:none;}
	.st9{fill:none;stroke:#F2F2F2;stroke-width:3;stroke-miterlimit:10;}
	.st10{fill:#F2F2F2;}
	.st11{font-family:'Consolas';}
	.st12{font-size:25px;}
	.st13{fill:#50495C;}
</style>
<rect class="st0" width="1425" height="50"/>
<rect x="475" y="50" class="st1" width="950" height="950"/>
<rect x="1" y="50" class="st2" width="475" height="950"/>
<g>
	<path class="st3" d="M450,849H0v150h475V874C475,860.19,463.81,849,450,849z"/>
</g>
<circle class="st4" cx="76" cy="926" r="50"/>
<rect x="1" y="50" class="st5" width="475" height="75"/>
<rect x="475" y="50" class="st6" width="950" height="75"/>
<rect x="1375" class="st7" width="50" height="50"/>
<path class="st7" d="M1374.59,50h-49.17c-0.23,0-0.41-0.18-0.41-0.41V0.41c0-0.23,0.18-0.41,0.41-0.41h49.17
	c0.23,0,0.41,0.18,0.41,0.41v49.17C1375,49.82,1374.82,50,1374.59,50z"/>
<path class="st7" d="M1324.59,50h-49.17c-0.23,0-0.41-0.18-0.41-0.41V0h49.59c0.23,0,0.41,0.18,0.41,0.41v49.17
	C1325,49.82,1324.82,50,1324.59,50z"/>
<line class="st1" x1="652" y1="294" x2="677.35" y2="294"/>
<line class="st8" x1="658" y1="175" x2="674" y2="157"/>
<line class="st8" x1="665.01" y1="165.99" x2="680.01" y2="150.99"/>
<line class="st9" x1="1392.01" y1="31.99" x2="1407.01" y2="16.99"/>
<line class="st9" x1="1392.41" y1="17.41" x2="1407.41" y2="32.41"/>
<rect x="1342.5" y="17.5" class="st9" width="15" height="15"/>
<line class="st9" x1="1294" y1="24.5" x2="1309" y2="24.5"/>
<text transform="matrix(1 0 0 1 150.7827 904.8691)" class="st10 st11 st12">User-1</text>
<text transform="matrix(1 0 0 1 152.5749 954.4387)" class="st10 st11 st12">Online</text>
<text transform="matrix(1 0 0 1 501.9131 93.3477)" class="st10 st11 st12">Global channel</text>
<g>
	<rect x="1" y="125" class="st13" width="475" height="150"/>
</g>
<circle class="st4" cx="76" cy="200" r="50"/>
<text transform="matrix(1 0 0 1 152.5749 209.5256)" class="st10 st11 st12">Global channel</text>
</svg>
